<svg xmlns="http://www.w3.org/2000/svg" width="167" height="96.77676659528908" viewBox="0 0 167 96.77676659528908" class="editor-view__logo-preview" data-v-8d8ae3dd="" data-v-b9d2a614=""><svg id="mark" viewBox="0 0 100 100" width="54" height="54" x="56.5" y="0" data-v-8d8ae3dd="" style="fill: rgb(7, 148, 181);"><rect x="0" y="0" width="100%" height="100%" fill="none" data-v-8d8ae3dd=""></rect><g data-v-8d8ae3dd=""><path xmlns="http://www.w3.org/2000/svg" d="M80.644,87.982l16.592-41.483c0.054-0.128,0.088-0.26,0.108-0.394c0.006-0.039,0.007-0.077,0.011-0.116  c0.007-0.087,0.008-0.174,0.002-0.26c-0.003-0.046-0.007-0.091-0.014-0.137c-0.014-0.089-0.036-0.176-0.063-0.262  c-0.012-0.034-0.019-0.069-0.031-0.103c-0.047-0.118-0.106-0.229-0.178-0.335c-0.004-0.006-0.006-0.012-0.01-0.018L67.999,3.358  c-0.01-0.013-0.003-0.026-0.013-0.04L68,3.315V4c0,0-0.033,0-0.037,0c-0.403-1-1.094-1.124-1.752-0.976  c0,0.004-0.004-0.012-0.007-0.012C66.201,3.016,66.194,3,66.194,3H66.19h-0.003h-0.003h-0.004h-0.003c0,0-0.004,0-0.007,0  s-0.003-0.151-0.007-0.151L20.495,15.227c-0.025,0.007-0.046-0.019-0.071-0.011c-0.087,0.028-0.172,0.041-0.253,0.083  c-0.054,0.027-0.102,0.053-0.152,0.085c-0.051,0.033-0.101,0.061-0.147,0.099c-0.044,0.036-0.084,0.073-0.124,0.113  c-0.048,0.048-0.093,0.098-0.136,0.152c-0.03,0.039-0.059,0.076-0.085,0.117c-0.046,0.07-0.084,0.145-0.12,0.223  c-0.011,0.023-0.027,0.042-0.036,0.066L2.911,57.664C2.891,57.715,3,57.768,3,57.82v0.002c0,0.186,0,0.375,0,0.562  c0,0.004,0,0.004,0,0.008c0,0,0,0,0,0.002c0,0,0,0,0,0.004v0.004v0.002c0,0.074-0.002,0.15,0.012,0.223  C3.015,58.631,3,58.631,3,58.633c0,0.004,0,0.004,0,0.008c0,0,0,0,0,0.002c0,0,0,0,0,0.004v0.004c0,0,0,0,0,0.002v0.004  c0,0.191-0.046,0.377,0.06,0.545c0-0.002-0.03,0.004-0.03,0.004c0,0.004-0.03,0.004-0.03,0.004c0,0.002,0,0.002,0,0.002  l-0.045,0.004c0.03,0.047,0.036,0.09,0.068,0.133l29.049,37.359c0.002,0.004,0,0.006,0.002,0.01c0.002,0.002,0,0.004,0.002,0.008  c0.006,0.008,0.014,0.014,0.021,0.021c0.024,0.029,0.052,0.051,0.078,0.078c0.027,0.029,0.053,0.057,0.082,0.082  c0.03,0.027,0.055,0.062,0.086,0.088c0.026,0.02,0.057,0.033,0.084,0.053c0.04,0.027,0.081,0.053,0.123,0.076  c0.005,0.004,0.01,0.008,0.016,0.01c0.087,0.051,0.176,0.09,0.269,0.123c0.042,0.014,0.082,0.031,0.125,0.043  c0.021,0.006,0.041,0.018,0.062,0.021c0.123,0.027,0.249,0.043,0.375,0.043c0.099,0,0.202-0.012,0.304-0.027l45.669-8.303  c0.057-0.01,0.108-0.021,0.163-0.037C79.547,88.992,79.562,89,79.575,89c0.004,0,0.004,0,0.004,0c0.021,0,0.039-0.027,0.06-0.035  c0.041-0.014,0.08-0.034,0.12-0.052c0.021-0.01,0.044-0.019,0.064-0.03c0.017-0.01,0.026-0.015,0.033-0.017  c0.014-0.008,0.023-0.021,0.037-0.028c0.14-0.078,0.269-0.174,0.38-0.285c0.014-0.016,0.024-0.034,0.038-0.048  c0.109-0.119,0.201-0.252,0.271-0.398c0.006-0.01,0.016-0.018,0.021-0.029c0.004-0.008,0.008-0.017,0.011-0.026  c0.002-0.004,0.003-0.006,0.005-0.01C80.627,88.021,80.635,88.002,80.644,87.982z M77.611,84.461L48.805,66.453l32.407-25.202  L77.611,84.461z M46.817,63.709L35.863,23.542l43.818,14.608L46.817,63.709z M84.668,40.542l8.926,5.952l-11.902,29.75  L84.668,40.542z M89.128,39.446L84.53,36.38l-6.129-12.257L89.128,39.446z M79.876,34.645L37.807,20.622L65.854,6.599L79.876,34.645  z M33.268,19.107l-6.485-2.162l23.781-6.487L33.268,19.107z M21.92,18.895l8.67,2.891L10.357,47.798L21.92,18.895z M32.652,24.649  l10.845,39.757L7.351,57.178L32.652,24.649z M43.472,67.857L32.969,92.363L8.462,60.855L43.472,67.857z M46.631,69.09l27.826,17.393  l-38.263,6.959L46.631,69.09z"></path></g></svg><svg id="name" viewBox="0 0 167.828125 34.94921875" width="167" height="34.77676659528908" x="0" y="62" data-v-8d8ae3dd="" style="fill: rgb(7, 148, 181);"><rect x="0" y="0" width="100%" height="100%" fill="none" data-v-8d8ae3dd=""></rect><g data-v-8d8ae3dd=""><path xmlns="http://www.w3.org/2000/svg" d="M7.48 1.80L14.85 26.39L22.26 1.80L29.76 1.80L18.37 34.50L11.34 34.50L0 1.80L7.48 1.80ZM41.51 17.88L41.51 23.11L28.86 23.11L28.86 17.88L41.51 17.88ZM56.83 29.72L56.83 29.72Q58.62 29.72 59.75 28.73Q60.87 27.74 60.91 26.10L60.91 26.10L67.00 26.10Q66.98 28.57 65.65 30.63Q64.33 32.68 62.03 33.81Q59.72 34.95 56.94 34.95L56.94 34.95Q51.73 34.95 48.72 31.64Q45.71 28.32 45.71 22.48L45.71 22.48L45.71 22.06Q45.71 16.44 48.70 13.09Q51.68 9.75 56.89 9.75L56.89 9.75Q61.45 9.75 64.20 12.34Q66.96 14.94 67.00 19.25L67.00 19.25L60.91 19.25Q60.87 17.36 59.75 16.18Q58.62 15.00 56.78 15.00L56.78 15.00Q54.51 15.00 53.36 16.65Q52.20 18.31 52.20 22.01L52.20 22.01L52.20 22.69Q52.20 26.44 53.34 28.08Q54.49 29.72 56.83 29.72ZM77.04 0L77.04 12.85Q79.62 9.75 83.53 9.75L83.53 9.75Q91.44 9.75 91.55 18.93L91.55 18.93L91.55 34.50L85.06 34.50L85.06 19.11Q85.06 17.03 84.16 16.03Q83.26 15.03 81.17 15.03L81.17 15.03Q78.32 15.03 77.04 17.23L77.04 17.23L77.04 34.50L70.55 34.50L70.55 0L77.04 0ZM107.63 34.95L107.63 34.95Q102.29 34.95 98.93 31.67Q95.57 28.39 95.57 22.93L95.57 22.93L95.57 22.30Q95.57 18.64 96.99 15.76Q98.40 12.87 101.00 11.31Q103.59 9.75 106.91 9.75L106.91 9.75Q111.90 9.75 114.76 12.89Q117.63 16.04 117.63 21.81L117.63 21.81L117.63 24.46L102.15 24.46Q102.47 26.84 104.05 28.28Q105.63 29.72 108.06 29.72L108.06 29.72Q111.81 29.72 113.92 27.00L113.92 27.00L117.11 30.57Q115.65 32.64 113.16 33.79Q110.67 34.95 107.63 34.95ZM106.89 15.00L106.89 15.00Q104.96 15.00 103.76 16.31Q102.56 17.61 102.22 20.04L102.22 20.04L111.25 20.04L111.25 19.52Q111.20 17.36 110.08 16.18Q108.96 15.00 106.89 15.00ZM131.42 29.72L131.42 29.72Q133.22 29.72 134.34 28.73Q135.46 27.74 135.51 26.10L135.51 26.10L141.59 26.10Q141.57 28.57 140.25 30.63Q138.92 32.68 136.62 33.81Q134.32 34.95 131.53 34.95L131.53 34.95Q126.32 34.95 123.31 31.64Q120.30 28.32 120.30 22.48L120.30 22.48L120.30 22.06Q120.30 16.44 123.29 13.09Q126.28 9.75 131.49 9.75L131.49 9.75Q136.05 9.75 138.80 12.34Q141.55 14.94 141.59 19.25L141.59 19.25L135.51 19.25Q135.46 17.36 134.34 16.18Q133.22 15.00 131.37 15.00L131.37 15.00Q129.11 15.00 127.95 16.65Q126.79 18.31 126.79 22.01L126.79 22.01L126.79 22.69Q126.79 26.44 127.94 28.08Q129.08 29.72 131.42 29.72ZM160.37 34.50L154.13 24.75L151.79 27.09L151.79 34.50L145.30 34.50L145.30 0L151.79 0L151.79 19.11L153.05 17.50L159.27 10.20L167.06 10.20L158.28 20.33L167.83 34.50L160.37 34.50Z"></path></g></svg><!----></svg>